HIERARCHY
ROOT Hips
{
	OFFSET 0.000000 97.167313 0.000000
	CHANNELS 6 Xposition Yposition Zposition Xrotation Yrotation Zrotation
	JOINT Spine
	{
		OFFSET 0.000000 13.784798 0.064400
		CHANNELS 3 Xrotation Yrotation Zrotation
		JOINT Spine1
		{
			OFFSET 0.000000 12.037903 0.404700
			CHANNELS 3 Xrotation Yrotation Zrotation
			JOINT Spine2
			{
				OFFSET 0.000000 17.795601 0.420200
				CHANNELS 3 Xrotation Yrotation Zrotation
				JOINT Neck
				{
					OFFSET 0.000000 39.131302 11.954600
					CHANNELS 3 Xrotation Yrotation Zrotation
					JOINT Head
					{
						OFFSET 0.000000 14.456192 15.627699
						CHANNELS 3 Xrotation Yrotation Zrotation
						JOINT HeadTop_End
						{
							OFFSET 0.000000 15.703506 7.603401
							CHANNELS 3 Xrotation Yrotation Zrotation
							End Site
							{
								OFFSET 0.000000 17.447403 0.000000
							}
						}
					}
				}
				JOINT LeftShoulder
				{
					OFFSET 17.399500 24.608795 1.168800
					CHANNELS 3 Xrotation Yrotation Zrotation
					JOINT LeftArm
					{
						OFFSET 18.980635 5.765305 1.818600
						CHANNELS 3 Xrotation Yrotation Zrotation
						JOINT LeftForeArm
						{
							OFFSET 49.290169 0.000000 0.000000
							CHANNELS 3 Xrotation Yrotation Zrotation
							JOINT LeftHand
							{
								OFFSET 31.562012 0.000000 0.000000
								CHANNELS 3 Xrotation Yrotation Zrotation
								JOINT LeftHandThumb1
								{
									OFFSET 6.133995 -4.388519 7.076070
									CHANNELS 3 Xrotation Yrotation Zrotation
									JOINT LeftHandThumb2
									{
										OFFSET 6.037666 -3.485840 3.485847
										CHANNELS 3 Xrotation Yrotation Zrotation
										JOINT LeftHandThumb3
										{
											OFFSET 6.496506 -3.750763 3.750761
											CHANNELS 3 Xrotation Yrotation Zrotation
											JOINT LeftHandThumb4
											{
												OFFSET 5.616882 -3.242905 3.242910
												CHANNELS 3 Xrotation Yrotation Zrotation
												End Site
												{
													OFFSET -1.254608 7.132141 0.375429
												}
											}
										}
									}
								}
								JOINT LeftHandPinky1
								{
									OFFSET 18.920792 -0.453171 -11.426712
									CHANNELS 3 Xrotation Yrotation Zrotation
									JOINT LeftHandPinky2
									{
										OFFSET 4.919586 0.000000 0.000000
										CHANNELS 3 Xrotation Yrotation Zrotation
										JOINT LeftHandPinky3
										{
											OFFSET 5.233047 0.000000 0.000000
											CHANNELS 3 Xrotation Yrotation Zrotation
											JOINT LeftHandPinky4
											{
												OFFSET 5.571716 0.000000 0.000000
												CHANNELS 3 Xrotation Yrotation Zrotation
												End Site
												{
													OFFSET -3.459808 4.342407 -0.466164
												}
											}
										}
									}
								}
								JOINT LeftHandRing1
								{
									OFFSET 22.726120 -0.094986 -6.500475
									CHANNELS 3 Xrotation Yrotation Zrotation
									JOINT LeftHandRing2
									{
										OFFSET 6.408615 0.000000 0.000000
										CHANNELS 3 Xrotation Yrotation Zrotation
										JOINT LeftHandRing3
										{
											OFFSET 6.150223 0.000000 0.000000
											CHANNELS 3 Xrotation Yrotation Zrotation
											JOINT LeftHandRing4
											{
												OFFSET 6.145386 0.000000 0.000000
												CHANNELS 3 Xrotation Yrotation Zrotation
												End Site
												{
													OFFSET -3.671402 4.923981 -0.202372
												}
											}
										}
									}
								}
								JOINT LeftHandMiddle1
								{
									OFFSET 23.373947 0.000000 0.000001
									CHANNELS 3 Xrotation Yrotation Zrotation
									JOINT LeftHandMiddle2
									{
										OFFSET 6.996567 0.000000 0.000000
										CHANNELS 3 Xrotation Yrotation Zrotation
										JOINT LeftHandMiddle3
										{
											OFFSET 7.015945 0.000000 0.000000
											CHANNELS 3 Xrotation Yrotation Zrotation
											JOINT LeftHandMiddle4
											{
												OFFSET 7.721573 0.000000 0.000000
												CHANNELS 3 Xrotation Yrotation Zrotation
												End Site
												{
													OFFSET -4.651108 6.158463 0.251582
												}
											}
										}
									}
								}
								JOINT LeftHandIndex1
								{
									OFFSET 21.310577 -0.490082 6.209344
									CHANNELS 3 Xrotation Yrotation Zrotation
									JOINT LeftHandIndex2
									{
										OFFSET 7.536453 0.000000 0.000000
										CHANNELS 3 Xrotation Yrotation Zrotation
										JOINT LeftHandIndex3
										{
											OFFSET 7.512344 0.000000 0.000000
											CHANNELS 3 Xrotation Yrotation Zrotation
											JOINT LeftHandIndex4
											{
												OFFSET 10.212402 0.000000 0.000001
												CHANNELS 3 Xrotation Yrotation Zrotation
												End Site
												{
													OFFSET -5.180801 8.690506 1.388433
												}
											}
										}
									}
								}
							}
						}
					}
				}
				JOINT RightShoulder
				{
					OFFSET -17.399500 24.608795 1.168800
					CHANNELS 3 Xrotation Yrotation Zrotation
					JOINT RightArm
					{
						OFFSET -18.980635 5.765305 1.818600
						CHANNELS 3 Xrotation Yrotation Zrotation
						JOINT RightForeArm
						{
							OFFSET -49.290169 0.000000 0.000000
							CHANNELS 3 Xrotation Yrotation Zrotation
							JOINT RightHand
							{
								OFFSET -31.562012 0.000000 0.000000
								CHANNELS 3 Xrotation Yrotation Zrotation
								JOINT RightHandThumb1
								{
									OFFSET -6.133995 -4.388519 7.076070
									CHANNELS 3 Xrotation Yrotation Zrotation
									JOINT RightHandThumb2
									{
										OFFSET -6.037666 -3.485840 3.485847
										CHANNELS 3 Xrotation Yrotation Zrotation
										JOINT RightHandThumb3
										{
											OFFSET -6.496506 -3.750763 3.750761
											CHANNELS 3 Xrotation Yrotation Zrotation
											JOINT RightHandThumb4
											{
												OFFSET -5.616882 -3.242905 3.242910
												CHANNELS 3 Xrotation Yrotation Zrotation
												End Site
												{
													OFFSET 1.254608 7.132141 0.375429
												}
											}
										}
									}
								}
								JOINT RightHandIndex1
								{
									OFFSET -21.310577 -0.490082 6.209344
									CHANNELS 3 Xrotation Yrotation Zrotation
									JOINT RightHandIndex2
									{
										OFFSET -7.536453 0.000000 0.000000
										CHANNELS 3 Xrotation Yrotation Zrotation
										JOINT RightHandIndex3
										{
											OFFSET -7.512344 0.000000 0.000000
											CHANNELS 3 Xrotation Yrotation Zrotation
											JOINT RightHandIndex4
											{
												OFFSET -10.212402 0.000000 0.000001
												CHANNELS 3 Xrotation Yrotation Zrotation
												End Site
												{
													OFFSET 5.180801 8.690506 1.388433
												}
											}
										}
									}
								}
								JOINT RightHandMiddle1
								{
									OFFSET -23.373947 0.000000 0.000001
									CHANNELS 3 Xrotation Yrotation Zrotation
									JOINT RightHandMiddle2
									{
										OFFSET -6.996567 0.000000 0.000000
										CHANNELS 3 Xrotation Yrotation Zrotation
										JOINT RightHandMiddle3
										{
											OFFSET -7.015945 0.000000 0.000000
											CHANNELS 3 Xrotation Yrotation Zrotation
											JOINT RightHandMiddle4
											{
												OFFSET -7.721573 0.000000 0.000000
												CHANNELS 3 Xrotation Yrotation Zrotation
												End Site
												{
													OFFSET 4.651108 6.158463 0.251582
												}
											}
										}
									}
								}
								JOINT RightHandRing1
								{
									OFFSET -22.726120 -0.094986 -6.500475
									CHANNELS 3 Xrotation Yrotation Zrotation
									JOINT RightHandRing2
									{
										OFFSET -6.408615 0.000000 0.000000
										CHANNELS 3 Xrotation Yrotation Zrotation
										JOINT RightHandRing3
										{
											OFFSET -6.150223 0.000000 0.000000
											CHANNELS 3 Xrotation Yrotation Zrotation
											JOINT RightHandRing4
											{
												OFFSET -6.145386 0.000000 0.000000
												CHANNELS 3 Xrotation Yrotation Zrotation
												End Site
												{
													OFFSET 3.671402 4.923981 -0.202372
												}
											}
										}
									}
								}
								JOINT RightHandPinky1
								{
									OFFSET -18.920792 -0.453171 -11.426712
									CHANNELS 3 Xrotation Yrotation Zrotation
									JOINT RightHandPinky2
									{
										OFFSET -4.919586 0.000000 0.000000
										CHANNELS 3 Xrotation Yrotation Zrotation
										JOINT RightHandPinky3
										{
											OFFSET -5.233047 0.000000 0.000000
											CHANNELS 3 Xrotation Yrotation Zrotation
											JOINT RightHandPinky4
											{
												OFFSET -5.571716 0.000000 0.000000
												CHANNELS 3 Xrotation Yrotation Zrotation
												End Site
												{
													OFFSET 3.459808 4.342407 -0.466164
												}
											}
										}
									}
								}
							}
						}
					}
				}
			}
		}
	}
	JOINT LeftUpLeg
	{
		OFFSET 19.899099 -7.885101 -3.429500
		CHANNELS 3 Xrotation Yrotation Zrotation
		JOINT LeftLeg
		{
			OFFSET 1.745560 -36.997807 10.304700
			CHANNELS 3 Xrotation Yrotation Zrotation
			JOINT LeftFoot
			{
				OFFSET -1.745558 -29.803308 -13.615400
				CHANNELS 3 Xrotation Yrotation Zrotation
				JOINT LeftToeBase
				{
					OFFSET 1.181900 -18.539904 15.226099
					CHANNELS 3 Xrotation Yrotation Zrotation
					JOINT LeftToe_End
					{
						OFFSET -0.863701 1.402801 16.534700
						CHANNELS 3 Xrotation Yrotation Zrotation
						End Site
						{
							OFFSET 0.000000 16.616566 0.000000
						}
					}
				}
			}
		}
	}
	JOINT RightUpLeg
	{
		OFFSET -19.899099 -7.885101 -3.429500
		CHANNELS 3 Xrotation Yrotation Zrotation
		JOINT RightLeg
		{
			OFFSET -1.745560 -36.997807 10.304700
			CHANNELS 3 Xrotation Yrotation Zrotation
			JOINT RightFoot
			{
				OFFSET 1.745558 -29.803308 -13.615400
				CHANNELS 3 Xrotation Yrotation Zrotation
				JOINT RightToeBase
				{
					OFFSET -1.181900 -18.539904 15.226099
					CHANNELS 3 Xrotation Yrotation Zrotation
					JOINT RightToe_End
					{
						OFFSET 0.863701 1.402801 16.534700
						CHANNELS 3 Xrotation Yrotation Zrotation
						End Site
						{
							OFFSET 0.000000 16.616566 0.000000
						}
					}
				}
			}
		}
	}
}
MOTION
Frames: 4
Frame Time: 0.033333
0.869080 87.302383 2.224888 -2.434589 0.123019 -4.890427 1.720289 0.035572 1.774045 3.443623 0.243801 0.717516 3.443622 0.243801 0.717516 -0.812259 -1.553415 3.718983 0.907150 2.352041 4.325583 0.000000 0.000000 0.000000 0.577967 -9.651119 -9.869757 -1.791111 -9.553059 -71.206040 32.363560 -4.837718 3.604593 -5.478201 -6.421301 -2.966702 44.596214 5.219565 31.157995 2.426618 20.932112 10.996104 -4.919773 -10.077568 -2.388539 -0.000001 0.000002 -0.000003 0.962357 7.927113 -30.796056 9.105850 2.503075 -35.791366 9.816688 4.559753 -7.505638 0.000001 -0.000002 -0.000007 0.946359 8.272308 -29.052193 6.596262 1.105992 -36.045336 5.813664 -0.147285 -11.497873 -0.000003 0.000001 0.000002 0.398752 6.167425 -16.901272 5.414358 0.826607 -39.294789 5.759536 -0.110568 -7.097881 -0.000001 -0.000004 0.000004 0.151986 4.943529 -1.638190 2.820301 1.655583 -38.330909 4.413803 -2.297981 -5.968671 -0.000002 0.000001 0.000001 0.626928 3.035679 20.155765 -6.823690 19.799494 54.201171 23.947681 7.000470 -3.476546 -5.574911 10.270121 -4.776473 4.280799 -15.890123 -2.422249 1.836937 -18.253807 -10.474641 -2.576129 5.196139 1.002200 -0.000001 0.000001 0.000002 0.815698 -7.341102 29.157780 1.921651 0.060839 16.932181 4.528730 2.821049 11.169187 -0.000001 0.000000 0.000001 1.407120 -8.005361 40.252224 4.496514 0.856180 17.906990 6.072492 4.827151 12.436037 -0.000001 0.000002 -0.000004 2.288405 -9.822531 52.036028 5.775683 0.626580 14.653889 6.114411 6.591894 12.764623 -0.000002 0.000000 -0.000005 0.338230 -8.339685 60.178072 8.289387 -0.760731 14.380700 10.669911 0.128425 12.856354 0.000002 0.000000 0.000004 -22.636085 4.265486 4.447900 56.862127 11.260789 0.565223 -3.800215 -0.668662 6.687992 -16.917509 2.788977 -10.167087 0.000001 0.000002 -0.000000 -8.017327 -3.712576 7.762255 28.590861 -9.394455 0.258538 -18.168563 -0.837156 -0.755151 -0.146940 -0.005750 0.000003 -0.000000 0.000000 0.000000 
0.490956 88.109863 5.679648 -1.918542 0.014238 -3.526147 1.678386 0.421249 1.384070 3.371538 0.807128 0.488145 3.371539 0.807128 0.488146 -0.916233 -1.647117 2.891168 0.551990 1.415557 4.839696 -0.000000 0.000000 -0.000000 0.542523 -8.579687 -10.646907 1.361779 -6.588657 -71.575963 30.654435 -5.386700 3.694024 -5.496238 -6.353713 -2.996711 44.596214 5.219561 31.158001 2.426617 20.932115 10.996105 -4.919776 -10.077571 -2.388542 0.000001 0.000000 0.000004 0.962348 7.927112 -30.796056 9.105844 2.503068 -35.791366 9.816689 4.559755 -7.505639 0.000004 -0.000003 -0.000003 0.946354 8.272308 -29.052196 6.596262 1.105993 -36.045330 5.813667 -0.147289 -11.497865 -0.000003 0.000001 0.000002 0.398747 6.167425 -16.901279 5.414358 0.826607 -39.294789 5.759533 -0.110571 -7.097875 -0.000001 -0.000002 0.000001 0.151984 4.943527 -1.638189 2.820304 1.655591 -38.330906 4.413802 -2.297984 -5.968673 -0.000002 -0.000001 0.000006 0.535699 4.052376 19.104235 -9.190286 21.819823 53.073452 21.752331 8.542173 -3.729912 -5.517864 9.651354 -4.398484 4.280804 -15.890118 -2.422251 1.836935 -18.253805 -10.474646 -2.576123 5.196139 1.002198 -0.000000 0.000000 -0.000000 0.815706 -7.341095 29.157777 1.921650 0.060847 16.932189 4.528727 2.821050 11.169184 0.000000 -0.000003 -0.000004 1.407123 -8.005358 40.252224 4.496513 0.856181 17.906990 6.072496 4.827150 12.436037 0.000001 -0.000001 -0.000004 2.288406 -9.822529 52.036028 5.775683 0.626577 14.653891 6.114417 6.591889 12.764620 -0.000003 0.000001 -0.000005 0.338235 -8.339687 60.178058 8.289392 -0.760733 14.380697 10.669908 0.128428 12.856347 0.000004 -0.000004 0.000002 -24.538431 4.184834 2.115256 48.863850 12.836941 0.598942 -3.565248 -0.514101 5.977896 -12.882199 1.731862 -7.787429 -0.000000 0.000001 -0.000000 -4.414998 -3.669164 6.662292 26.448680 -8.847521 0.248582 -20.196376 -0.743735 -0.702046 -0.053947 0.000147 -0.002441 0.000000 0.000000 -0.000000 
0.149206 89.051521 9.074917 -1.380003 -0.084223 -2.295847 1.644802 0.796065 0.968016 3.308668 1.369361 0.321017 3.308669 1.369362 0.321017 -1.041769 -1.783824 2.151655 0.212374 0.419081 5.319426 -0.000000 0.000000 0.000001 0.527490 -7.675186 -11.302015 4.556850 -4.246089 -71.811871 28.781526 -6.399983 3.975140 -5.524202 -6.482555 -2.828237 44.596211 5.219565 31.157998 2.426615 20.932115 10.996109 -4.919777 -10.077573 -2.388539 -0.000000 0.000000 0.000002 0.962352 7.927116 -30.796053 9.105849 2.503072 -35.791363 9.816690 4.559755 -7.505641 -0.000000 -0.000002 -0.000004 0.946357 8.272308 -29.052193 6.596266 1.105992 -36.045336 5.813670 -0.147284 -11.497864 -0.000002 -0.000002 -0.000000 0.398747 6.167424 -16.901274 5.414357 0.826608 -39.294789 5.759536 -0.110567 -7.097875 -0.000002 0.000001 0.000001 0.151986 4.943527 -1.638190 2.820299 1.655589 -38.330906 4.413807 -2.297982 -5.968671 -0.000003 -0.000002 0.000001 0.481390 4.866435 18.288195 -11.161173 23.844479 51.692115 19.516164 10.301029 -3.925046 -5.400029 9.053428 -4.681258 4.280802 -15.890123 -2.422253 1.836936 -18.253807 -10.474645 -2.576122 5.196140 1.002202 -0.000000 0.000006 0.000000 0.815705 -7.341104 29.157777 1.921648 0.060843 16.932181 4.528721 2.821052 11.169186 0.000000 -0.000001 -0.000001 1.407123 -8.005362 40.252224 4.496515 0.856180 17.906990 6.072494 4.827150 12.436037 0.000001 0.000004 -0.000004 2.288403 -9.822530 52.036028 5.775683 0.626580 14.653889 6.114412 6.591895 12.764618 -0.000000 -0.000004 -0.000004 0.338232 -8.339686 60.178065 8.289389 -0.760735 14.380697 10.669908 0.128428 12.856351 0.000003 0.000006 0.000001 -26.786421 3.973367 -0.161086 39.354966 14.030211 0.656988 -0.292149 -0.505888 6.849608 -7.692686 0.854720 -5.879322 0.000000 0.000002 -0.000000 -0.533306 -3.483694 5.683949 23.177670 -8.565262 0.199980 -21.419784 -0.677651 -0.583103 0.025738 0.009628 -0.016800 0.000000 0.000001 -0.000000 
-0.100900 90.066216 12.245095 -0.793418 -0.114480 -1.187822 1.600472 1.118543 0.409006 3.209716 1.893828 0.229662 3.209720 1.893829 0.229661 -1.111496 -1.974415 1.600005 -0.041624 -0.600974 5.765089 0.000000 0.000000 0.000000 0.525365 -7.009107 -11.735812 7.740019 -2.383187 -72.000132 27.152642 -7.609665 4.323963 -5.539206 -6.727708 -2.368243 44.596204 5.219565 31.157998 2.426621 20.932115 10.996103 -4.919780 -10.077573 -2.388543 -0.000001 -0.000000 0.000001 0.962355 7.927114 -30.796056 9.105842 2.503068 -35.791366 9.816688 4.559748 -7.505637 -0.000001 0.000001 -0.000000 0.946356 8.272306 -29.052189 6.596264 1.105996 -36.045333 5.813666 -0.147290 -11.497867 -0.000000 -0.000003 0.000005 0.398745 6.167425 -16.901277 5.414353 0.826604 -39.294789 5.759530 -0.110573 -7.097882 -0.000001 -0.000003 0.000004 0.151985 4.943531 -1.638186 2.820298 1.655584 -38.330906 4.413807 -2.297983 -5.968671 0.000000 0.000001 0.000001 0.450576 5.424981 17.770679 -12.706288 25.625248 50.164611 17.469493 12.127581 -4.045816 -5.248294 8.608241 -5.636760 4.280799 -15.890118 -2.422254 1.836930 -18.253810 -10.474640 -2.576125 5.196137 1.002197 0.000002 0.000004 -0.000000 0.815697 -7.341098 29.157780 1.921647 0.060844 16.932184 4.528725 2.821050 11.169179 -0.000002 0.000000 0.000001 1.407118 -8.005357 40.252224 4.496516 0.856175 17.906989 6.072492 4.827151 12.436039 -0.000002 -0.000001 -0.000004 2.288400 -9.822527 52.036028 5.775682 0.626575 14.653889 6.114418 6.591892 12.764616 0.000000 0.000004 -0.000003 0.338229 -8.339688 60.178065 8.289391 -0.760738 14.380699 10.669910 0.128428 12.856354 -0.000002 -0.000001 -0.000001 -28.852573 3.770266 -2.385143 28.429028 13.936116 0.871237 4.945578 -0.494907 8.646690 -1.002285 0.113206 -2.194819 0.000000 -0.000000 -0.000000 3.075239 -3.278648 4.744957 19.417408 -8.479925 0.080214 -21.548024 -0.697475 -0.361913 -0.516934 0.011480 0.010156 0.000000 -0.000000 -0.000000 
